<?xml version="1.0" encoding="UTF-8" standalone="no"?>
<!-- Created with Inkscape (http://www.inkscape.org/) -->

<svg
   width="191.36662mm"
   height="191.60855mm"
   viewBox="0 0 191.36662 191.60855"
   version="1.1"
   id="svg5"
   xmlns:inkscape="http://www.inkscape.org/namespaces/inkscape"
   xmlns:sodipodi="http://sodipodi.sourceforge.net/DTD/sodipodi-0.dtd"
   xmlns="http://www.w3.org/2000/svg"
   xmlns:svg="http://www.w3.org/2000/svg">
  <sodipodi:namedview
     id="namedview7"
     pagecolor="#ffffff"
     bordercolor="#666666"
     borderopacity="1.0"
     inkscape:pageshadow="2"
     inkscape:pageopacity="0.0"
     inkscape:pagecheckerboard="0"
     inkscape:document-units="mm"
     showgrid="false"
     fit-margin-top="0"
     fit-margin-left="0"
     fit-margin-right="0"
     fit-margin-bottom="0"
     inkscape:zoom="0.55678311"
     inkscape:cx="548.68762"
     inkscape:cy="379.86066"
     inkscape:window-width="1312"
     inkscape:window-height="847"
     inkscape:window-x="0"
     inkscape:window-y="25"
     inkscape:window-maximized="0"
     inkscape:current-layer="layer1" />
  <defs
     id="defs2">
    <rect
       x="-350.22614"
       y="123.92617"
       width="400.51501"
       height="256.83249"
       id="rect59248" />
    <rect
       x="-249.64838"
       y="109.55792"
       width="292.75314"
       height="210.1357"
       id="rect5879" />
    <rect
       x="-249.64838"
       y="109.55792"
       width="292.75314"
       height="210.1357"
       id="rect9255" />
    <rect
       x="-249.64838"
       y="109.55792"
       width="292.75314"
       height="210.1357"
       id="rect9261" />
    <rect
       x="-249.64838"
       y="109.55792"
       width="292.75314"
       height="210.1357"
       id="rect9267" />
    <rect
       x="-249.64838"
       y="109.55792"
       width="292.75314"
       height="210.1357"
       id="rect9273" />
    <rect
       x="-249.64838"
       y="109.55792"
       width="292.75314"
       height="210.1357"
       id="rect9279" />
    <rect
       x="-350.22614"
       y="123.92617"
       width="400.51501"
       height="256.83249"
       id="rect65106" />
  </defs>
  <g
     inkscape:label="Layer 1"
     inkscape:groupmode="layer"
     id="layer1"
     transform="translate(-10.94772,-47.984316)">
    <path
       style="fill:#f5a000;fill-opacity:1;stroke:none;stroke-width:0.264583px;stroke-linecap:butt;stroke-linejoin:miter;stroke-opacity:1"
       d="m 122.6016,118.3248 35.64,20.9088 c 0,0 17.63552,-24.87961 16.632,-38.9664 -0.73739,-10.351086 -6.78731,-22.150112 -16.1568,-26.611201 -7.36223,-3.505371 -18.07107,-2.011531 -24.2352,3.3264 -10.83919,9.386377 -11.88,41.342401 -11.88,41.342401 z"
       id="path1141"
       sodipodi:nodetypes="ccsssc" />
    <path
       style="fill:#b80000;fill-opacity:1;stroke:none;stroke-width:0.264583px;stroke-linecap:butt;stroke-linejoin:miter;stroke-opacity:1"
       d="m 86.53762,106.41942 39.41451,-12.405004 c 0,0 -6.62073,-29.768646 -17.7409,-38.474206 C 100.04005,49.143297 87.231276,45.714918 77.63757,49.67086 70.099161,52.779307 64.02325,61.72325 63.846883,69.875483 63.536754,84.210612 86.53762,106.41942 86.53762,106.41942 Z"
       id="path1318"
       sodipodi:nodetypes="ccsssc" />
    <path
       style="fill:#f127f5;fill-opacity:1;stroke:none;stroke-width:0.264583px;stroke-linecap:butt;stroke-linejoin:miter;stroke-opacity:1"
       d="m 60.111364,151.48231 17.238135,-37.55308 c 0,0 -26.519196,-15.057855 -40.434913,-12.64999 -10.225369,1.7693 -21.359904,8.96935 -24.861199,18.73816 -2.751197,7.676 -0.193441,18.18165 5.734423,23.78079 10.423732,9.84571 42.323554,7.68412 42.323554,7.68412 z"
       id="path1320"
       sodipodi:nodetypes="ccsssc" />
    <path
       style="fill:#2f2ce9;fill-opacity:1;stroke:none;stroke-width:0.264583px;stroke-linecap:butt;stroke-linejoin:miter;stroke-opacity:1"
       d="m 92.245387,174.95479 -35.64,-20.9088 c 0,0 -17.63552,24.87961 -16.632,38.9664 0.73739,10.35109 6.78731,22.15011 16.1568,26.6112 7.36223,3.50537 18.07107,2.01153 24.2352,-3.3264 10.83919,-9.38638 11.88,-41.3424 11.88,-41.3424 z"
       id="path1322"
       sodipodi:nodetypes="ccsssc" />
    <path
       style="fill:#1fcb13;fill-opacity:1;stroke:none;stroke-width:0.264583px;stroke-linecap:butt;stroke-linejoin:miter;stroke-opacity:1"
       d="m 130.68537,181.15777 -39.414513,12.405 c 0,0 6.62073,29.76865 17.740903,38.47421 8.17118,6.39691 20.97995,9.82529 30.57366,5.86935 7.53841,-3.10845 13.61432,-12.05239 13.79068,-20.20462 0.31013,-14.33513 -22.69073,-36.54394 -22.69073,-36.54394 z"
       id="path1324"
       sodipodi:nodetypes="ccsssc" />
    <path
       style="fill:#f3eb00;fill-opacity:1;stroke:none;stroke-width:0.264583px;stroke-linecap:butt;stroke-linejoin:miter;stroke-opacity:1"
       d="m 153.1507,141.22869 -17.23813,37.55308 c 0,0 26.51919,15.05785 40.43491,12.64999 10.22537,-1.7693 21.3599,-8.96935 24.8612,-18.73816 2.7512,-7.676 0.19344,-18.18165 -5.73442,-23.78079 -10.42374,-9.84571 -42.32356,-7.68412 -42.32356,-7.68412 z"
       id="path1326"
       sodipodi:nodetypes="ccsssc" />
    <text
       xml:space="preserve"
       transform="matrix(1.0397248,-0.39071375,0.39071375,1.0397248,284.50918,-154.11016)"
       id="text5877"
       style="font-size:40px;line-height:1.25;font-family:'Comic Sans MS';-inkscape-font-specification:'Comic Sans MS';white-space:pre;shape-inside:url(#rect5879);fill:#ff7171;fill-opacity:1"><tspan
         sodipodi:role="line"
         id="tspan5881"
         style="fill:#ff7171;fill-opacity:1">S</tspan></text>
    <text
       xml:space="preserve"
       transform="matrix(0.91433555,0.63061511,-0.63061511,0.91433555,451.54384,130.70179)"
       id="text9253"
       style="font-size:40px;line-height:1.25;font-family:'Comic Sans MS';-inkscape-font-specification:'Comic Sans MS';white-space:pre;shape-inside:url(#rect9255);fill:#ffcc6b;fill-opacity:1"><tspan
         sodipodi:role="line"
         id="tspan9251"
         style="fill:#ffcc6b;fill-opacity:1">P</tspan></text>
    <text
       xml:space="preserve"
       transform="matrix(-0.21009434,1.0906628,-1.0906628,-0.21009434,266.75929,451.05587)"
       id="text9259"
       style="font-size:40px;line-height:1.25;font-family:'Comic Sans MS';-inkscape-font-specification:'Comic Sans MS';white-space:pre;shape-inside:url(#rect9261);fill:#fffb94;fill-opacity:1"><tspan
         sodipodi:role="line"
         id="tspan9257"
         style="fill:#fffb94;fill-opacity:1">R</tspan></text>
    <text
       xml:space="preserve"
       transform="matrix(-1.0143839,0.45244922,-0.45244922,-1.0143839,-56.873728,450.71174)"
       id="text9265"
       style="font-size:40px;line-height:1.25;font-family:'Comic Sans MS';-inkscape-font-specification:'Comic Sans MS';white-space:pre;shape-inside:url(#rect9267);fill:#83f37b;fill-opacity:1"><tspan
         sodipodi:role="line"
         id="tspan9263"
         style="fill:#83f37b;fill-opacity:1">I</tspan></text>
    <text
       xml:space="preserve"
       transform="matrix(-0.97019375,-0.54074861,0.54074861,-0.97019375,-232.04772,194.67808)"
       id="text9271"
       style="font-size:40px;line-height:1.25;font-family:'Comic Sans MS';-inkscape-font-specification:'Comic Sans MS';white-space:pre;shape-inside:url(#rect9273);fill:#8684f2;fill-opacity:1"><tspan
         sodipodi:role="line"
         id="tspan9269"
         style="fill:#8684f2;fill-opacity:1">N</tspan></text>
    <text
       xml:space="preserve"
       transform="matrix(0.43743252,-1.0209494,1.0209494,0.43743252,7.4867161,-172.33497)"
       id="text9277"
       style="font-size:40px;line-height:1.25;font-family:'Comic Sans MS';-inkscape-font-specification:'Comic Sans MS';white-space:pre;shape-inside:url(#rect9279);fill:#f9a9fb;fill-opacity:1"><tspan
         sodipodi:role="line"
         id="tspan9275"
         style="fill:#f9a9fb;fill-opacity:1">G</tspan></text>
    <circle
       style="fill:#d0f9b7;fill-opacity:1;fill-rule:evenodd;stroke-width:0.264583"
       id="path31"
       cx="106.44479"
       cy="141.6096"
       r="51.796799" />
    <text
       xml:space="preserve"
       transform="matrix(0.37515904,-0.06776966,0.06776966,0.37515904,180.03396,61.03508)"
       id="text59246"
       style="font-size:96px;line-height:1.25;font-family:'Comic Sans MS';-inkscape-font-specification:'Comic Sans MS';white-space:pre;shape-inside:url(#rect59248)"><tspan
         style="fill:#800000"
         id="tspan62520">KI</tspan><tspan
         style="fill:#000080"
         id="tspan63932">D</tspan></text>
    <text
       xml:space="preserve"
       transform="matrix(0.37515904,-0.06776966,0.06776966,0.37515904,244.18596,49.15508)"
       id="text65104"
       style="font-size:96px;line-height:1.25;font-family:'Comic Sans MS';-inkscape-font-specification:'Comic Sans MS';white-space:pre;shape-inside:url(#rect65106)"><tspan
         style="fill:#000080"
         id="tspan65102">S</tspan></text>
  </g>
</svg>
